<svg width="34" height="28" viewBox="0 0 34 28" fill="none" xmlns="http://www.w3.org/2000/svg">
<path d="M11.3839 10.3159L15.7658 7.36852H21.1633L19.4754 2.94741H15.4567V0H21.6393L23.3272 4.42111H29.3676V8.84223H25.0151L27.2655 14.74C28.9731 14.7918 30.601 15.4409 31.8388 16.5637C33.0765 17.6865 33.8376 19.2043 33.9768 20.8278C34.1161 22.4513 33.6238 24.0669 32.5938 25.3665C31.5638 26.666 30.0681 27.5587 28.3921 27.8743C26.716 28.1899 24.9767 27.9063 23.5059 27.0776C22.0351 26.2489 20.9356 24.933 20.4171 23.3809C19.8986 21.8288 19.9974 20.1491 20.6946 18.662C21.3918 17.1749 22.6386 15.9845 24.1974 15.3177L22.287 10.3159H20.8232L18.378 18.9666L13.8569 20.542C14.0201 21.7832 13.8118 23.0431 13.2559 24.1762C12.7001 25.3093 11.8195 26.2695 10.7157 26.9457C9.61199 27.622 8.33014 27.9869 7.01819 27.9981C5.70623 28.0094 4.41769 27.6667 3.30133 27.0095C2.18497 26.3523 1.28633 25.4075 0.709169 24.2841C0.132006 23.1607 -0.100143 21.9046 0.0395298 20.6608C0.179202 19.4169 0.684998 18.2361 1.49852 17.2547C2.31204 16.2733 3.4001 15.5313 4.63708 15.1143V13.2633H1.54576V10.3159H11.3839ZM6.95557 25.053C7.9804 25.053 8.96326 24.6648 9.68793 23.9739C10.4126 23.2829 10.8197 22.3458 10.8197 21.3687C10.8197 20.3916 10.4126 19.4545 9.68793 18.7635C8.96326 18.0726 7.9804 17.6845 6.95557 17.6845C5.93073 17.6845 4.94787 18.0726 4.2232 18.7635C3.49853 19.4545 3.09142 20.3916 3.09142 21.3687C3.09142 22.3458 3.49853 23.2829 4.2232 23.9739C4.94787 24.6648 5.93073 25.053 6.95557 25.053ZM27.0491 25.053C28.074 25.053 29.0568 24.6648 29.7815 23.9739C30.5062 23.2829 30.9133 22.3458 30.9133 21.3687C30.9133 20.3916 30.5062 19.4545 29.7815 18.7635C29.0568 18.0726 28.074 17.6845 27.0491 17.6845C26.0243 17.6845 25.0414 18.0726 24.3168 18.7635C23.5921 19.4545 23.185 20.3916 23.185 21.3687C23.185 22.3458 23.5921 23.2829 24.3168 23.9739C25.0414 24.6648 26.0243 25.053 27.0491 25.053Z" fill="#006AFF"/>
</svg>
