<svg width="31" height="25" viewBox="0 0 31 25" fill="none" xmlns="http://www.w3.org/2000/svg">
<path d="M6.24992 12.5002H4.16661V5.55582H1.38887V2.77808H9.72209V5.55582H6.94435V9.43771L20.5733 5.78637L19.7678 2.77808H15.2776V0.000338114H20.8025C21.1134 -0.00652178 21.4177 0.0911735 21.6665 0.277774C21.9153 0.464375 22.0942 0.729082 22.1747 1.02949L24.3316 9.07938L21.6483 9.79743L21.2928 8.46967L6.24992 12.5002ZM5.55548 22.2223C6.29218 22.2223 6.99871 21.9296 7.51964 21.4087C8.04057 20.8877 8.33322 20.1812 8.33322 19.4445C8.33322 18.7078 8.04057 18.0013 7.51964 17.4804C6.99871 16.9594 6.29218 16.6668 5.55548 16.6668C4.81878 16.6668 4.11225 16.9594 3.59132 17.4804C3.07039 18.0013 2.77774 18.7078 2.77774 19.4445C2.77774 20.1812 3.07039 20.8877 3.59132 21.4087C4.11225 21.9296 4.81878 22.2223 5.55548 22.2223ZM5.55548 25C4.08208 25 2.66902 24.4147 1.62716 23.3728C0.585308 22.331 0 20.9179 0 19.4445C0 17.9711 0.585308 16.5581 1.62716 15.5162C2.66902 14.4743 4.08208 13.889 5.55548 13.889C7.02889 13.889 8.44194 14.4743 9.4838 15.5162C10.5257 16.5581 11.111 17.9711 11.111 19.4445C11.111 20.9179 10.5257 22.331 9.4838 23.3728C8.44194 24.4147 7.02889 25 5.55548 25ZM23.6108 22.2223C24.7158 22.2223 25.7756 21.7833 26.557 21.0019C27.3384 20.2205 27.7774 19.1607 27.7774 18.0556C27.7774 16.9506 27.3384 15.8908 26.557 15.1094C25.7756 14.328 24.7158 13.889 23.6108 13.889C22.5057 13.889 21.4459 14.328 20.6646 15.1094C19.8832 15.8908 19.4442 16.9506 19.4442 18.0556C19.4442 19.1607 19.8832 20.2205 20.6646 21.0019C21.4459 21.7833 22.5057 22.2223 23.6108 22.2223ZM23.6108 25C21.769 25 20.0027 24.2684 18.7004 22.966C17.3981 21.6637 16.6664 19.8974 16.6664 18.0556C16.6664 16.2139 17.3981 14.4476 18.7004 13.1453C20.0027 11.8429 21.769 11.1113 23.6108 11.1113C25.4525 11.1113 27.2189 11.8429 28.5212 13.1453C29.8235 14.4476 30.5551 16.2139 30.5551 18.0556C30.5551 19.8974 29.8235 21.6637 28.5212 22.966C27.2189 24.2684 25.4525 25 23.6108 25Z" fill="#006AFF"/>
</svg>
