<svg width="32" height="28" viewBox="0 0 32 28" fill="none" xmlns="http://www.w3.org/2000/svg">
<path fill-rule="evenodd" clip-rule="evenodd" d="M20.2909 0.109808C16.9937 0.334939 15.1492 0.479818 13.9636 0.606879C11.2864 0.893667 8.97898 1.46413 4.4 2.97125C2.37833 3.63661 0.581963 4.29248 0.462327 4.40901C0.399927 4.46968 0.452873 4.63994 0.674327 5.09091C1.17353 6.10746 2.23396 8.30525 2.96764 9.84384L3.66625 11.3088L3.96036 11.3453C4.12218 11.3654 5.25273 11.4777 6.47273 11.595C7.69273 11.7122 9.14909 11.8564 9.70909 11.9156C10.2691 11.9746 10.8575 12.0302 11.0165 12.0392L11.3057 12.0556L11.4263 11.0303C11.4926 10.4664 11.6658 9.12821 11.8113 8.05657C11.9568 6.98494 12.1374 5.60665 12.2126 4.99369C12.2878 4.3808 12.3668 3.86223 12.3882 3.84144C12.4386 3.79244 13.37 3.62946 14.2767 3.51096C14.9275 3.4259 14.9955 3.42802 15.0546 3.53549C15.1124 3.64042 15.4101 4.64482 16.5589 8.61021C16.8862 9.73976 16.8898 9.76344 16.7562 9.90698C16.647 10.0244 16.6199 10.1668 16.6189 10.6301C16.6179 11.1443 16.5641 11.3726 16.1247 12.7273C15.5596 14.4696 15.4671 14.7612 14.7449 17.0758L14.2156 18.7727L13.5116 18.7929L12.8076 18.8131L12.7705 18.5808C12.7359 18.3635 12.704 17.9575 12.5082 15.2374C12.3996 13.7288 12.3729 13.4851 12.3102 13.4307C12.2119 13.3454 8.40073 12.8215 6.43636 12.6233C4.94458 12.4727 2.76167 12.3204 1.25455 12.2617L0 12.2127V14.2376V16.2626H0.507418H1.01484L1.03469 15.0076L1.05455 13.7525L1.89091 13.7715C2.35091 13.7819 2.96458 13.8085 3.25455 13.8305C3.70495 13.8648 3.78182 13.8898 3.78182 14.0019C3.78182 14.0741 3.89796 14.7453 4.03985 15.4933L4.29789 16.8535L3.79345 17.3535C2.86909 18.2699 2.37571 19.1598 2.10495 20.399C1.92524 21.2217 1.92749 21.9406 2.11265 22.8386C2.38756 24.172 2.92676 25.1779 3.86095 26.0999C5.13178 27.3542 6.7096 28 8.50364 28C11.6072 28 14.2458 25.9105 14.9092 22.9275C15.1236 21.964 15.1081 21.805 14.7534 21.3122C14.5877 21.0822 14.3383 20.7587 14.1991 20.5934L13.9461 20.2929L15.9913 20.2784C17.1161 20.2705 18.1669 20.2625 18.3265 20.2608L18.6165 20.2576L18.6434 21.4596C18.6743 22.8392 18.7599 23.2396 19.2322 24.2172C20.1143 26.0425 21.7724 27.3652 23.7655 27.8333C24.4642 27.9973 24.6439 28.0126 25.4909 27.9794C26.5764 27.9367 27.1292 27.8148 27.9863 27.4288C29.7586 26.6307 31.0619 25.239 31.623 23.5455C31.8231 22.9414 32 21.9965 32 21.5318C32 20.7328 31.7159 19.5975 31.3007 18.7374C30.7855 17.6703 29.6219 16.4481 28.547 15.845C27.0539 15.0073 24.8812 14.8194 23.0884 15.3729C22.6951 15.4943 22.5318 15.5177 22.4844 15.459C22.3933 15.3468 22.0809 14.7848 21.3785 13.4697C21.0463 12.8475 20.7148 12.2429 20.642 12.1263C20.5692 12.0096 20.5095 11.8957 20.5094 11.8731C20.5092 11.8506 20.7791 11.8707 21.1091 11.9179C21.4391 11.965 21.7303 11.9916 21.7561 11.9769C21.8362 11.9314 21.9845 10.7391 21.9175 10.6792C21.8828 10.6481 21.2 10.5048 20.4 10.3606C18.2957 9.98115 18.3845 10.0154 18.2772 9.54305C18.1923 9.16887 18.2004 9.11457 18.4615 8.30568L18.7346 7.4596L19.9127 7.44015C20.5607 7.42947 21.0909 7.40883 21.0909 7.39426C21.0909 7.3797 20.9765 7.20251 20.8367 7.00049C20.654 6.73662 20.5946 6.58615 20.6256 6.46609C20.7023 6.16891 20.5116 5.33464 20.289 4.99326C19.9816 4.52207 19.6024 4.34997 18.8722 4.35011C18.3736 4.35025 18.2425 4.37726 17.961 4.53763C17.6313 4.72549 17.3091 5.19322 17.3091 5.48404C17.3091 5.77733 17.1593 5.42585 16.8319 4.36468C16.6428 3.75129 16.5009 3.23739 16.5167 3.22255C16.5527 3.18889 18.6952 3.01269 20.9455 2.85833C21.8855 2.79385 22.6953 2.72993 22.7452 2.71628C22.8369 2.69118 22.8335 2.41387 22.7196 0.65404L22.6773 0L22.1569 0.00897972C21.8706 0.0138585 21.0309 0.0592526 20.2909 0.109808ZM17.6784 12.4921C17.475 13.1075 17.3087 13.635 17.3089 13.6641C17.3089 13.6933 17.8164 13.7172 18.4364 13.7172C19.0564 13.7172 19.5636 13.7008 19.5636 13.6808C19.5636 13.6471 18.7012 11.9974 18.4869 11.6211C18.4348 11.5295 18.3638 11.4545 18.3292 11.4545C18.2947 11.4545 18.2173 11.4362 18.1573 11.4138C18.0713 11.3818 17.9697 11.6107 17.6784 12.4921ZM17.7323 15.6084L16.6646 15.63L16.5914 15.8579C16.1284 17.3014 15.7091 18.6834 15.7091 18.7659C15.7091 18.7891 16.4731 18.8081 17.4069 18.8081H19.1048L19.4813 18.2091C19.6884 17.8796 20.1374 17.3244 20.4791 16.9754L21.1002 16.3407L20.8419 15.9481L20.5836 15.5556L19.6918 15.5712C19.2013 15.5798 18.3195 15.5966 17.7323 15.6084ZM24.6909 16.5201C24.3306 16.5749 23.3462 16.8407 23.3136 16.8918C23.2969 16.9181 23.439 17.1929 23.6292 17.5026C23.8195 17.8122 24.1813 18.4236 24.4333 18.8611L24.8914 19.6566L25.3003 19.6581C25.9783 19.6607 26.6259 20.0373 26.9238 20.6023C27.021 20.7868 27.09 21.0794 27.1114 21.3987C27.1404 21.8304 27.119 21.9594 26.9633 22.29C26.4679 23.342 25.0505 23.6408 24.0151 22.9116C23.4172 22.4904 23.1775 21.5596 23.4658 20.7776L23.5869 20.4491L22.9677 19.4341C22.6271 18.8759 22.2588 18.2681 22.1491 18.0833C22.0395 17.8986 21.9235 17.7475 21.8913 17.7475C21.7861 17.7475 21.1329 18.4955 20.8833 18.9018C20.3028 19.8466 20.1105 20.5992 20.1663 21.7071C20.2332 23.0333 20.701 24.0796 21.6379 24.9988C22.9085 26.2453 24.7592 26.7835 26.4 26.3837C29.6945 25.5808 31.3315 22.1505 29.8152 19.2269C29.5236 18.6648 28.8664 17.8904 28.3804 17.5361C27.8767 17.1692 27.1074 16.8109 26.4893 16.6555C26.0104 16.5351 25.0617 16.4636 24.6909 16.5201ZM5.23731 18.4267C4.72255 18.5612 4.55222 18.6742 4.31338 19.0396C3.77316 19.8664 3.44604 21.044 3.5136 21.9192C3.60909 23.1564 4.09702 24.2229 4.93789 25.0324C5.89164 25.9506 6.93891 26.4288 8.14545 26.4971C9.39556 26.5679 10.441 26.2645 11.4688 25.5325C12.3436 24.9095 12.8985 24.1755 13.2348 23.1964L13.4131 22.6775L13.2064 22.316C12.8164 21.6337 12.5161 21.2437 11.9452 20.6772C10.6413 19.3837 9.35418 18.6955 7.71775 18.4169C6.94924 18.286 5.75767 18.2907 5.23731 18.4267ZM7.99956 19.7264C7.03644 19.9911 6.43571 21.0606 6.71862 22.0069C7.12131 23.3536 8.86298 23.7738 9.89265 22.7727C10.4632 22.218 10.6109 21.5389 10.3015 20.8931C10.1071 20.487 9.79433 20.2301 9.14502 19.9428C8.64153 19.7201 8.27484 19.6508 7.99956 19.7264Z" fill="#006AFF"/>
</svg>
