<svg width="31" height="22" viewBox="0 0 31 22" fill="none" xmlns="http://www.w3.org/2000/svg">
<path d="M10.5358 9.72347e-05C10.5062 0.000795947 10.4767 0.00358703 10.4474 0.00844906H5.58681C2.51335 0.00844906 0.0082976 2.4773 0.0082976 5.50634V7.23636C-0.00276587 7.30233 -0.00276587 7.36964 0.0082976 7.43561V9.78247V10.3933V15.8912C0.0082976 17.2407 1.11842 18.3347 2.48764 18.3347H2.51306C2.50455 18.4367 2.48764 18.5381 2.48764 18.6402C2.48764 19.4632 2.76265 20.2944 3.34112 20.9357C3.9196 21.5771 4.81202 22 5.89673 22C6.98144 22 7.87386 21.5771 8.45234 20.9357C9.03081 20.2944 9.30582 19.4632 9.30582 18.6402C9.30582 18.5381 9.28891 18.4367 9.2804 18.3347H19.8963L27.8549 12.2343L27.8658 12.2248C27.8273 11.408 27.7514 10.6291 27.6479 9.88627C27.6435 9.85267 27.6407 9.81607 27.6357 9.78247H27.6309C27.0314 5.61254 25.5503 2.65778 24.6952 1.2302H26.6612C26.7433 1.23135 26.8249 1.21639 26.9011 1.18621C26.9773 1.15602 27.0467 1.11121 27.1052 1.05437C27.1637 0.997529 27.2101 0.929799 27.2418 0.855115C27.2735 0.780431 27.2899 0.700282 27.2899 0.619325C27.2899 0.538369 27.2735 0.45822 27.2418 0.383536C27.2101 0.308852 27.1637 0.241122 27.1052 0.184284C27.0467 0.127445 26.9773 0.0826307 26.9011 0.052445C26.8249 0.0222593 26.7433 0.00730425 26.6612 0.00844906H10.6496C10.612 0.00222278 10.5739 -0.000572994 10.5358 9.72347e-05ZM5.58681 1.2302H9.92566V6.72809H1.24797V5.50634C1.24797 3.13767 3.18341 1.2302 5.58681 1.2302ZM11.1653 1.2302H18.6033V11.3097C18.6033 13.1624 17.0736 14.6695 15.1943 14.6695H13.6447V12.8369C13.6447 11.362 12.578 10.1285 11.1653 9.84451V7.44157C11.1764 7.3756 11.1764 7.30829 11.1653 7.24232V1.2302ZM21.7025 1.2302H23.2291C23.6418 1.82341 25.453 4.60635 26.2726 9.17159H21.7025V1.2302ZM1.24797 7.94984H9.92566V9.78247H1.24797V7.94984ZM28.4711 13.3093L22.7122 17.7239H23.7073C23.6217 18.0167 23.562 18.3203 23.562 18.6402C23.562 20.493 25.0918 22 26.9711 22C28.8505 22 30.3802 20.493 30.3802 18.6402C30.3802 18.3224 30.3323 18.0155 30.2483 17.7239H30.3802C30.5662 17.7239 30.7419 17.6425 30.8596 17.5007C30.9768 17.3596 31.0245 17.1733 30.9879 16.9937C30.5646 14.9045 29.3618 13.8322 28.4711 13.3093ZM25.0196 17.7239H28.9226C29.0581 18.0027 29.1405 18.3109 29.1405 18.6402C29.1405 19.8192 28.1674 20.7782 26.9711 20.7782C25.7748 20.7782 24.8017 19.8192 24.8017 18.6402C24.8017 18.3109 24.8841 18.0027 25.0196 17.7239ZM3.75394 18.3347H8.03952C8.05256 18.4361 8.06615 18.5373 8.06615 18.6402C8.06615 19.1917 7.87629 19.7349 7.52501 20.1244C7.17373 20.5139 6.67152 20.7782 5.89673 20.7782C5.12194 20.7782 4.61973 20.5139 4.26845 20.1244C3.91718 19.7349 3.72731 19.1917 3.72731 18.6402C3.72731 18.5373 3.7409 18.4361 3.75394 18.3347Z" fill="#006AFF"/>
</svg>
