<svg width="17" height="20" viewBox="0 0 17 20" fill="none" xmlns="http://www.w3.org/2000/svg">
<path d="M3.53247 0C1.58154 0 0 1.59898 0 3.57143C0 5.54387 1.58154 7.14286 3.53247 7.14286C4.83996 7.14286 5.96844 6.42463 6.57922 5.35714H8.47792L9.89091 3.92857L11.3039 5.35714L12.7169 3.92857L14.1299 5.35714H14.8364L16.9558 3.57143L14.8364 1.78571H6.57922C5.96844 0.718232 4.83996 0 3.53247 0ZM2.11948 2.85714C2.50967 2.85714 2.82597 3.17694 2.82597 3.57143C2.82597 3.96592 2.50967 4.28571 2.11948 4.28571C1.7293 4.28571 1.41299 3.96592 1.41299 3.57143C1.41299 3.17694 1.7293 2.85714 2.11948 2.85714ZM9.89091 7.76786L9.93507 9.19643L11.3039 10V11.4286H6.00519H5.65195V10H6.35844C7.77143 10 7.77143 8.57143 6.35844 8.57143H3.53247C2.11948 8.57143 2.11948 10 3.53247 10H4.23896V11.4286L3.44416 13.3929C3.3853 13.3896 3.3271 13.3929 3.26753 13.3929C1.47234 13.3929 0 14.8814 0 16.6964C0 18.5114 1.47234 20 3.26753 20C5.06273 20 6.53506 18.5114 6.53506 16.6964C6.53506 16.3535 6.45674 16.027 6.35844 15.7143H7.06493H8.47792L11.5243 12.8571L11.9221 13.8839C11.0183 14.4795 10.4208 15.5394 10.4208 16.6964C10.4208 18.5114 11.8931 20 13.6883 20C15.4835 20 17 18.5114 17 16.6964C17 14.8814 15.4835 13.3929 13.6883 13.3929C13.6287 13.3929 13.5705 13.3896 13.5117 13.3929L12.7169 11.4286V9.46429L9.89091 7.76786ZM5.43117 12.8571H9.82874L7.98338 14.6429H5.78442C5.56701 14.3747 5.32172 14.0737 5.03377 13.8839L5.43117 12.8571ZM3.26753 15C4.20364 15 4.94545 15.75 4.94545 16.6964C4.94545 17.6429 4.20364 18.3929 3.26753 18.3929C2.33143 18.3929 1.58961 17.6429 1.58961 16.6964C1.58961 15.75 2.33143 15 3.26753 15ZM13.6883 15C14.6244 15 15.3662 15.75 15.3662 16.6964C15.3662 17.6429 14.6244 18.3929 13.6883 18.3929C12.7522 18.3929 12.0545 17.6429 12.0545 16.6964C12.0545 15.75 12.7522 15 13.6883 15Z" fill="#E3E3E3"/>
</svg>
