<svg width="20" height="24" viewBox="0 0 20 24" fill="none" xmlns="http://www.w3.org/2000/svg">
<path d="M11.75 1H3.15C2.57978 1 2.03292 1.22652 1.62972 1.62972C1.22652 2.03292 1 2.57978 1 3.15V20.35C1 20.9202 1.22652 21.4671 1.62972 21.8703C2.03292 22.2735 2.57978 22.5 3.15 22.5H16.05C16.6202 22.5 17.1671 22.2735 17.5703 21.8703C17.9735 21.4671 18.2 20.9202 18.2 20.35V7.45L11.75 1Z" stroke="#E3E3E3" stroke-width="1.8" stroke-linecap="round" stroke-linejoin="round"/>
<path d="M13.8998 17.125H5.2998" stroke="#E3E3E3" stroke-width="1.8" stroke-linecap="round" stroke-linejoin="round"/>
<path d="M13.8998 12.8252H5.2998" stroke="#E3E3E3" stroke-width="1.8" stroke-linecap="round" stroke-linejoin="round"/>
<path d="M7.4498 8.5249H6.3748H5.2998" stroke="#E3E3E3" stroke-width="1.8" stroke-linecap="round" stroke-linejoin="round"/>
<path d="M11.75 1V7.45H18.2" stroke="#E3E3E3" stroke-width="1.8" stroke-linecap="round" stroke-linejoin="round"/>
</svg>
