<svg width="20" height="20" viewBox="0 0 20 20" fill="none" xmlns="http://www.w3.org/2000/svg">
<path d="M1.94737 1C1.6939 1.00634 1.45295 1.1115 1.27595 1.29304C1.09895 1.47458 0.999921 1.71811 1 1.97166V5.22672L14.749 18.9757H18.0283C18.286 18.9757 18.5332 18.8733 18.7154 18.6911C18.8976 18.5089 19 18.2617 19 18.004V1.94737C18.9937 1.6939 18.8885 1.45295 18.707 1.27595C18.5254 1.09895 18.2819 0.999921 18.0283 1H1.94737ZM12.9806 2.88988C14.0686 2.89244 15.1113 3.32579 15.8806 4.09512C16.6499 4.86445 17.0833 5.90715 17.0858 6.99514C17.0858 9.38543 15.1425 11.2462 12.9806 13.6899C10.9109 11.3482 9.04534 9.54089 8.88988 7.29636V7.27206C8.88988 7.17976 8.88988 7.08745 8.88988 6.99514C8.88988 5.90636 9.3224 4.86217 10.0923 4.09228C10.8622 3.3224 11.9064 2.88988 12.9951 2.88988H12.9806ZM12.9806 5.02267C12.4574 5.02267 11.9557 5.23049 11.5858 5.6004C11.2159 5.97031 11.0081 6.47201 11.0081 6.99514C11.0081 7.51827 11.2159 8.01998 11.5858 8.38989C11.9557 8.7598 12.4574 8.96761 12.9806 8.96761C13.5037 8.96761 14.0054 8.7598 14.3753 8.38989C14.7452 8.01998 14.953 7.51827 14.953 6.99514C14.953 6.47201 14.7452 5.97031 14.3753 5.6004C14.0054 5.23049 13.5037 5.02267 12.9806 5.02267ZM1 11.5328V18.0283C1 18.286 1.10237 18.5332 1.28459 18.7154C1.46681 18.8976 1.71396 19 1.97166 19H8.44292L1 11.5328Z" stroke="#E3E3E3" stroke-width="1.3" stroke-linecap="round" stroke-linejoin="round"/>
</svg>
