<svg width="27" height="24" viewBox="0 0 27 24" fill="none" xmlns="http://www.w3.org/2000/svg">
<mask id="path-1-outside-1_28_418" maskUnits="userSpaceOnUse" x="0" y="0" width="27" height="24" fill="black">
<rect fill="white" width="27" height="24"/>
<path d="M1 4.36111C1 3.46969 1.36216 2.61478 2.00682 1.98445C2.65148 1.35412 3.52582 1 4.4375 1H6.3125C6.56114 1 6.7996 1.09658 6.97541 1.26849C7.15123 1.44039 7.25 1.67355 7.25 1.91667C7.25 2.15978 7.15123 2.39294 6.97541 2.56485C6.7996 2.73676 6.56114 2.83333 6.3125 2.83333H4.4375C3.575 2.83333 2.875 3.51778 2.875 4.36111V6.19444C2.875 6.43756 2.77623 6.67072 2.60041 6.84263C2.4246 7.01453 2.18614 7.11111 1.9375 7.11111C1.68886 7.11111 1.4504 7.01453 1.27459 6.84263C1.09877 6.67072 1 6.43756 1 6.19444V4.36111ZM19.75 1.91667C19.75 1.67355 19.8488 1.44039 20.0246 1.26849C20.2004 1.09658 20.4389 1 20.6875 1H22.5625C23.4742 1 24.3485 1.35412 24.9932 1.98445C25.6378 2.61478 26 3.46969 26 4.36111V6.19444C26 6.43756 25.9012 6.67072 25.7254 6.84263C25.5496 7.01453 25.3111 7.11111 25.0625 7.11111C24.8139 7.11111 24.5754 7.01453 24.3996 6.84263C24.2238 6.67072 24.125 6.43756 24.125 6.19444V4.36111C24.125 3.51778 23.425 2.83333 22.5625 2.83333H20.6875C20.4389 2.83333 20.2004 2.73676 20.0246 2.56485C19.8488 2.39294 19.75 2.15978 19.75 1.91667ZM1.9375 16.8889C2.18614 16.8889 2.4246 16.9855 2.60041 17.1574C2.77623 17.3293 2.875 17.5624 2.875 17.8056V19.6389C2.875 20.4822 3.575 21.1667 4.4375 21.1667H6.3125C6.56114 21.1667 6.7996 21.2632 6.97541 21.4352C7.15123 21.6071 7.25 21.8402 7.25 22.0833C7.25 22.3264 7.15123 22.5596 6.97541 22.7315C6.7996 22.9034 6.56114 23 6.3125 23H4.4375C3.52582 23 2.65148 22.6459 2.00682 22.0156C1.36216 21.3852 1 20.5303 1 19.6389V17.8056C1 17.5624 1.09877 17.3293 1.27459 17.1574C1.4504 16.9855 1.68886 16.8889 1.9375 16.8889ZM25.0625 16.8889C25.3111 16.8889 25.5496 16.9855 25.7254 17.1574C25.9012 17.3293 26 17.5624 26 17.8056V19.6389C26 20.5303 25.6378 21.3852 24.9932 22.0156C24.3485 22.6459 23.4742 23 22.5625 23H20.6875C20.4389 23 20.2004 22.9034 20.0246 22.7315C19.8488 22.5596 19.75 22.3264 19.75 22.0833C19.75 21.8402 19.8488 21.6071 20.0246 21.4352C20.2004 21.2632 20.4389 21.1667 20.6875 21.1667H22.5625C23.425 21.1667 24.125 20.4822 24.125 19.6389V17.8056C24.125 17.5624 24.2238 17.3293 24.3996 17.1574C24.5754 16.9855 24.8139 16.8889 25.0625 16.8889ZM5.6875 5.88889C5.93614 5.88889 6.1746 5.98547 6.35041 6.15737C6.52623 6.32928 6.625 6.56244 6.625 6.80556V17.1944C6.625 17.4376 6.52623 17.6707 6.35041 17.8426C6.1746 18.0145 5.93614 18.1111 5.6875 18.1111C5.43886 18.1111 5.2004 18.0145 5.02459 17.8426C4.84877 17.6707 4.75 17.4376 4.75 17.1944V6.80556C4.75 6.56244 4.84877 6.32928 5.02459 6.15737C5.2004 5.98547 5.43886 5.88889 5.6875 5.88889ZM11.625 6.80556C11.625 6.56244 11.5262 6.32928 11.3504 6.15737C11.1746 5.98547 10.9361 5.88889 10.6875 5.88889C10.4389 5.88889 10.2004 5.98547 10.0246 6.15737C9.84877 6.32928 9.75 6.56244 9.75 6.80556V17.1944C9.75 17.4376 9.84877 17.6707 10.0246 17.8426C10.2004 18.0145 10.4389 18.1111 10.6875 18.1111C10.9361 18.1111 11.1746 18.0145 11.3504 17.8426C11.5262 17.6707 11.625 17.4376 11.625 17.1944V6.80556ZM15.6875 5.88889C15.9361 5.88889 16.1746 5.98547 16.3504 6.15737C16.5262 6.32928 16.625 6.56244 16.625 6.80556V17.1944C16.625 17.4376 16.5262 17.6707 16.3504 17.8426C16.1746 18.0145 15.9361 18.1111 15.6875 18.1111C15.4389 18.1111 15.2004 18.0145 15.0246 17.8426C14.8488 17.6707 14.75 17.4376 14.75 17.1944V6.80556C14.75 6.56244 14.8488 6.32928 15.0246 6.15737C15.2004 5.98547 15.4389 5.88889 15.6875 5.88889ZM21.625 6.80556C21.625 6.56244 21.5262 6.32928 21.3504 6.15737C21.1746 5.98547 20.9361 5.88889 20.6875 5.88889C20.4389 5.88889 20.2004 5.98547 20.0246 6.15737C19.8488 6.32928 19.75 6.56244 19.75 6.80556V17.1944C19.75 17.4376 19.8488 17.6707 20.0246 17.8426C20.2004 18.0145 20.4389 18.1111 20.6875 18.1111C20.9361 18.1111 21.1746 18.0145 21.3504 17.8426C21.5262 17.6707 21.625 17.4376 21.625 17.1944V6.80556Z"/>
</mask>
<path d="M1 4.36111C1 3.46969 1.36216 2.61478 2.00682 1.98445C2.65148 1.35412 3.52582 1 4.4375 1H6.3125C6.56114 1 6.7996 1.09658 6.97541 1.26849C7.15123 1.44039 7.25 1.67355 7.25 1.91667C7.25 2.15978 7.15123 2.39294 6.97541 2.56485C6.7996 2.73676 6.56114 2.83333 6.3125 2.83333H4.4375C3.575 2.83333 2.875 3.51778 2.875 4.36111V6.19444C2.875 6.43756 2.77623 6.67072 2.60041 6.84263C2.4246 7.01453 2.18614 7.11111 1.9375 7.11111C1.68886 7.11111 1.4504 7.01453 1.27459 6.84263C1.09877 6.67072 1 6.43756 1 6.19444V4.36111ZM19.75 1.91667C19.75 1.67355 19.8488 1.44039 20.0246 1.26849C20.2004 1.09658 20.4389 1 20.6875 1H22.5625C23.4742 1 24.3485 1.35412 24.9932 1.98445C25.6378 2.61478 26 3.46969 26 4.36111V6.19444C26 6.43756 25.9012 6.67072 25.7254 6.84263C25.5496 7.01453 25.3111 7.11111 25.0625 7.11111C24.8139 7.11111 24.5754 7.01453 24.3996 6.84263C24.2238 6.67072 24.125 6.43756 24.125 6.19444V4.36111C24.125 3.51778 23.425 2.83333 22.5625 2.83333H20.6875C20.4389 2.83333 20.2004 2.73676 20.0246 2.56485C19.8488 2.39294 19.75 2.15978 19.75 1.91667ZM1.9375 16.8889C2.18614 16.8889 2.4246 16.9855 2.60041 17.1574C2.77623 17.3293 2.875 17.5624 2.875 17.8056V19.6389C2.875 20.4822 3.575 21.1667 4.4375 21.1667H6.3125C6.56114 21.1667 6.7996 21.2632 6.97541 21.4352C7.15123 21.6071 7.25 21.8402 7.25 22.0833C7.25 22.3264 7.15123 22.5596 6.97541 22.7315C6.7996 22.9034 6.56114 23 6.3125 23H4.4375C3.52582 23 2.65148 22.6459 2.00682 22.0156C1.36216 21.3852 1 20.5303 1 19.6389V17.8056C1 17.5624 1.09877 17.3293 1.27459 17.1574C1.4504 16.9855 1.68886 16.8889 1.9375 16.8889ZM25.0625 16.8889C25.3111 16.8889 25.5496 16.9855 25.7254 17.1574C25.9012 17.3293 26 17.5624 26 17.8056V19.6389C26 20.5303 25.6378 21.3852 24.9932 22.0156C24.3485 22.6459 23.4742 23 22.5625 23H20.6875C20.4389 23 20.2004 22.9034 20.0246 22.7315C19.8488 22.5596 19.75 22.3264 19.75 22.0833C19.75 21.8402 19.8488 21.6071 20.0246 21.4352C20.2004 21.2632 20.4389 21.1667 20.6875 21.1667H22.5625C23.425 21.1667 24.125 20.4822 24.125 19.6389V17.8056C24.125 17.5624 24.2238 17.3293 24.3996 17.1574C24.5754 16.9855 24.8139 16.8889 25.0625 16.8889ZM5.6875 5.88889C5.93614 5.88889 6.1746 5.98547 6.35041 6.15737C6.52623 6.32928 6.625 6.56244 6.625 6.80556V17.1944C6.625 17.4376 6.52623 17.6707 6.35041 17.8426C6.1746 18.0145 5.93614 18.1111 5.6875 18.1111C5.43886 18.1111 5.2004 18.0145 5.02459 17.8426C4.84877 17.6707 4.75 17.4376 4.75 17.1944V6.80556C4.75 6.56244 4.84877 6.32928 5.02459 6.15737C5.2004 5.98547 5.43886 5.88889 5.6875 5.88889ZM11.625 6.80556C11.625 6.56244 11.5262 6.32928 11.3504 6.15737C11.1746 5.98547 10.9361 5.88889 10.6875 5.88889C10.4389 5.88889 10.2004 5.98547 10.0246 6.15737C9.84877 6.32928 9.75 6.56244 9.75 6.80556V17.1944C9.75 17.4376 9.84877 17.6707 10.0246 17.8426C10.2004 18.0145 10.4389 18.1111 10.6875 18.1111C10.9361 18.1111 11.1746 18.0145 11.3504 17.8426C11.5262 17.6707 11.625 17.4376 11.625 17.1944V6.80556ZM15.6875 5.88889C15.9361 5.88889 16.1746 5.98547 16.3504 6.15737C16.5262 6.32928 16.625 6.56244 16.625 6.80556V17.1944C16.625 17.4376 16.5262 17.6707 16.3504 17.8426C16.1746 18.0145 15.9361 18.1111 15.6875 18.1111C15.4389 18.1111 15.2004 18.0145 15.0246 17.8426C14.8488 17.6707 14.75 17.4376 14.75 17.1944V6.80556C14.75 6.56244 14.8488 6.32928 15.0246 6.15737C15.2004 5.98547 15.4389 5.88889 15.6875 5.88889ZM21.625 6.80556C21.625 6.56244 21.5262 6.32928 21.3504 6.15737C21.1746 5.98547 20.9361 5.88889 20.6875 5.88889C20.4389 5.88889 20.2004 5.98547 20.0246 6.15737C19.8488 6.32928 19.75 6.56244 19.75 6.80556V17.1944C19.75 17.4376 19.8488 17.6707 20.0246 17.8426C20.2004 18.0145 20.4389 18.1111 20.6875 18.1111C20.9361 18.1111 21.1746 18.0145 21.3504 17.8426C21.5262 17.6707 21.625 17.4376 21.625 17.1944V6.80556Z" fill="#E3E3E3"/>
<path d="M1 4.36111C1 3.46969 1.36216 2.61478 2.00682 1.98445C2.65148 1.35412 3.52582 1 4.4375 1H6.3125C6.56114 1 6.7996 1.09658 6.97541 1.26849C7.15123 1.44039 7.25 1.67355 7.25 1.91667C7.25 2.15978 7.15123 2.39294 6.97541 2.56485C6.7996 2.73676 6.56114 2.83333 6.3125 2.83333H4.4375C3.575 2.83333 2.875 3.51778 2.875 4.36111V6.19444C2.875 6.43756 2.77623 6.67072 2.60041 6.84263C2.4246 7.01453 2.18614 7.11111 1.9375 7.11111C1.68886 7.11111 1.4504 7.01453 1.27459 6.84263C1.09877 6.67072 1 6.43756 1 6.19444V4.36111ZM19.75 1.91667C19.75 1.67355 19.8488 1.44039 20.0246 1.26849C20.2004 1.09658 20.4389 1 20.6875 1H22.5625C23.4742 1 24.3485 1.35412 24.9932 1.98445C25.6378 2.61478 26 3.46969 26 4.36111V6.19444C26 6.43756 25.9012 6.67072 25.7254 6.84263C25.5496 7.01453 25.3111 7.11111 25.0625 7.11111C24.8139 7.11111 24.5754 7.01453 24.3996 6.84263C24.2238 6.67072 24.125 6.43756 24.125 6.19444V4.36111C24.125 3.51778 23.425 2.83333 22.5625 2.83333H20.6875C20.4389 2.83333 20.2004 2.73676 20.0246 2.56485C19.8488 2.39294 19.75 2.15978 19.75 1.91667ZM1.9375 16.8889C2.18614 16.8889 2.4246 16.9855 2.60041 17.1574C2.77623 17.3293 2.875 17.5624 2.875 17.8056V19.6389C2.875 20.4822 3.575 21.1667 4.4375 21.1667H6.3125C6.56114 21.1667 6.7996 21.2632 6.97541 21.4352C7.15123 21.6071 7.25 21.8402 7.25 22.0833C7.25 22.3264 7.15123 22.5596 6.97541 22.7315C6.7996 22.9034 6.56114 23 6.3125 23H4.4375C3.52582 23 2.65148 22.6459 2.00682 22.0156C1.36216 21.3852 1 20.5303 1 19.6389V17.8056C1 17.5624 1.09877 17.3293 1.27459 17.1574C1.4504 16.9855 1.68886 16.8889 1.9375 16.8889ZM25.0625 16.8889C25.3111 16.8889 25.5496 16.9855 25.7254 17.1574C25.9012 17.3293 26 17.5624 26 17.8056V19.6389C26 20.5303 25.6378 21.3852 24.9932 22.0156C24.3485 22.6459 23.4742 23 22.5625 23H20.6875C20.4389 23 20.2004 22.9034 20.0246 22.7315C19.8488 22.5596 19.75 22.3264 19.75 22.0833C19.75 21.8402 19.8488 21.6071 20.0246 21.4352C20.2004 21.2632 20.4389 21.1667 20.6875 21.1667H22.5625C23.425 21.1667 24.125 20.4822 24.125 19.6389V17.8056C24.125 17.5624 24.2238 17.3293 24.3996 17.1574C24.5754 16.9855 24.8139 16.8889 25.0625 16.8889ZM5.6875 5.88889C5.93614 5.88889 6.1746 5.98547 6.35041 6.15737C6.52623 6.32928 6.625 6.56244 6.625 6.80556V17.1944C6.625 17.4376 6.52623 17.6707 6.35041 17.8426C6.1746 18.0145 5.93614 18.1111 5.6875 18.1111C5.43886 18.1111 5.2004 18.0145 5.02459 17.8426C4.84877 17.6707 4.75 17.4376 4.75 17.1944V6.80556C4.75 6.56244 4.84877 6.32928 5.02459 6.15737C5.2004 5.98547 5.43886 5.88889 5.6875 5.88889ZM11.625 6.80556C11.625 6.56244 11.5262 6.32928 11.3504 6.15737C11.1746 5.98547 10.9361 5.88889 10.6875 5.88889C10.4389 5.88889 10.2004 5.98547 10.0246 6.15737C9.84877 6.32928 9.75 6.56244 9.75 6.80556V17.1944C9.75 17.4376 9.84877 17.6707 10.0246 17.8426C10.2004 18.0145 10.4389 18.1111 10.6875 18.1111C10.9361 18.1111 11.1746 18.0145 11.3504 17.8426C11.5262 17.6707 11.625 17.4376 11.625 17.1944V6.80556ZM15.6875 5.88889C15.9361 5.88889 16.1746 5.98547 16.3504 6.15737C16.5262 6.32928 16.625 6.56244 16.625 6.80556V17.1944C16.625 17.4376 16.5262 17.6707 16.3504 17.8426C16.1746 18.0145 15.9361 18.1111 15.6875 18.1111C15.4389 18.1111 15.2004 18.0145 15.0246 17.8426C14.8488 17.6707 14.75 17.4376 14.75 17.1944V6.80556C14.75 6.56244 14.8488 6.32928 15.0246 6.15737C15.2004 5.98547 15.4389 5.88889 15.6875 5.88889ZM21.625 6.80556C21.625 6.56244 21.5262 6.32928 21.3504 6.15737C21.1746 5.98547 20.9361 5.88889 20.6875 5.88889C20.4389 5.88889 20.2004 5.98547 20.0246 6.15737C19.8488 6.32928 19.75 6.56244 19.75 6.80556V17.1944C19.75 17.4376 19.8488 17.6707 20.0246 17.8426C20.2004 18.0145 20.4389 18.1111 20.6875 18.1111C20.9361 18.1111 21.1746 18.0145 21.3504 17.8426C21.5262 17.6707 21.625 17.4376 21.625 17.1944V6.80556Z" stroke="#E3E3E3" stroke-width="0.6" mask="url(#path-1-outside-1_28_418)"/>
</svg>
